<?xml version="1.0" standalone="no"?>
<!DOCTYPE svg PUBLIC "-//W3C//DTD SVG 20010904//EN"
 "http://www.w3.org/TR/2001/REC-SVG-20010904/DTD/svg10.dtd">
<svg version="1.0" xmlns="http://www.w3.org/2000/svg"
 width="1500.000000pt" height="1500.000000pt" viewBox="0 0 1500.000000 1500.000000"
 preserveAspectRatio="xMidYMid meet">
<metadata>
Created by potrace 1.11, written by Peter Selinger 2001-2013
</metadata>
<g transform="translate(0.000000,1500.000000) scale(0.100000,-0.100000)"
fill="#000000" stroke="none">
<path d="M0 7500 l0 -7500 7500 0 7500 0 0 7500 0 7500 -7500 0 -7500 0 0
-7500z m9770 2302 c0 -5 18 -16 40 -26 49 -21 111 -81 133 -129 10 -20 22 -39
27 -42 14 -9 14 -4202 0 -4210 -6 -4 -16 -21 -24 -38 -21 -51 -63 -94 -127
-132 l-60 -35 -2253 0 -2253 0 -61 33 c-58 31 -102 75 -149 152 l-23 36 0
2094 c0 1664 3 2096 13 2102 6 4 21 26 32 47 21 42 89 105 145 135 34 18 112
19 2298 20 1244 0 2262 -3 2262 -7z"/>
<path d="M5240 9701 c-44 -24 -85 -64 -105 -104 -13 -27 -15 -274 -15 -2102
l0 -2072 30 -45 c18 -28 48 -55 79 -71 l49 -27 2221 0 c1983 0 2226 2 2259 15
51 22 81 52 108 110 l24 50 0 2046 0 2045 -27 55 c-19 37 -42 63 -73 84 l-45
30 -2235 2 c-2164 2 -2236 2 -2270 -16z m1012 -1419 l3 -1199 30 -49 c21 -33
48 -60 85 -81 l54 -33 238 0 238 0 0 -595 c0 -376 -4 -600 -10 -608 -5 -7 -21
-27 -36 -44 -14 -18 -54 -46 -89 -63 l-63 -30 -499 0 -500 0 -61 31 c-69 34
-120 89 -149 159 -17 43 -18 118 -18 1760 0 1642 1 1717 18 1760 30 71 81 126
150 159 l62 30 272 1 273 0 2 -1198z m1562 1192 c14 -6 16 -120 16 -1188 l0
-1182 26 -52 c29 -58 66 -91 137 -122 l48 -21 -3 -557 -3 -557 -23 -43 c-35
-66 -88 -119 -147 -147 l-54 -25 -339 0 -339 0 -61 31 c-34 16 -73 45 -87 62
-14 18 -30 37 -35 44 -7 8 -9 225 -8 610 l3 598 34 17 c46 23 89 65 112 110
18 36 19 76 19 1221 0 907 3 1186 12 1195 9 9 99 12 344 12 183 0 339 -3 348
-6z m1520 -11 c71 -25 147 -102 174 -176 l22 -58 0 -1699 0 -1699 -21 -58
c-26 -69 -95 -141 -164 -172 -46 -20 -60 -21 -545 -21 -487 0 -498 0 -546 21
-51 23 -154 119 -154 145 0 8 -7 25 -15 38 -13 20 -15 97 -13 577 l3 554 225
5 c182 4 232 8 260 22 41 19 90 69 116 118 18 34 19 80 21 1225 2 655 3 1191
3 1193 0 1 132 2 293 2 253 0 299 -2 341 -17z"/>
</g>
</svg>
